<?xml version="1.0" standalone="no"?>
<!DOCTYPE svg PUBLIC "-//W3C//DTD SVG 20010904//EN"
 "http://www.w3.org/TR/2001/REC-SVG-20010904/DTD/svg10.dtd">
<svg version="1.0" xmlns="http://www.w3.org/2000/svg"
 width="2006.000000pt" height="821.000000pt" viewBox="0 0 2006.000000 821.000000"
 preserveAspectRatio="xMidYMid meet">

<g transform="translate(0.000000,821.000000) scale(0.100000,-0.100000)"
fill="#000000" stroke="none">
<path d="M1622 5504 c-22 -15 -111 -70 -417 -259 -88 -54 -205 -126 -260 -160
-55 -34 -110 -67 -122 -74 l-23 -12 0 -353 0 -352 148 -89 c81 -49 224 -136
317 -194 94 -57 217 -134 275 -169 58 -36 140 -87 183 -114 43 -27 86 -48 95
-46 15 3 17 23 20 180 l2 176 -147 90 c-82 49 -209 127 -283 172 -74 45 -161
98 -192 117 l-58 35 0 193 0 193 244 147 244 147 125 -76 c68 -41 245 -150
393 -241 147 -91 273 -165 280 -165 6 0 55 28 110 63 54 34 121 75 148 91 58
34 69 21 -114 135 -621 389 -932 581 -938 581 -4 0 -18 -7 -30 -16z"/>
<path d="M8787 5183 c-4 -3 -7 -438 -7 -965 l0 -958 144 0 143 0 7 38 c3 20 6
191 6 380 l0 342 420 0 c272 0 438 4 472 11 117 25 210 95 260 197 l33 67 0
310 0 310 -26 55 c-54 113 -151 186 -278 210 -60 11 -1163 14 -1174 3z m1126
-314 c54 -28 57 -38 57 -259 0 -225 -2 -235 -60 -265 -24 -13 -94 -15 -430
-15 l-400 0 0 275 0 275 406 0 c279 0 412 -3 427 -11z"/>
<path d="M3070 4220 l0 -960 150 0 150 0 0 479 c0 288 4 490 10 505 l10 26
303 0 c300 0 304 0 338 -23 19 -13 39 -38 46 -57 8 -25 12 -163 12 -482 l1
-448 144 0 143 0 7 38 c10 63 7 882 -4 952 -15 91 -51 160 -115 219 -102 92
-115 95 -530 101 l-360 5 -3 303 -2 302 -150 0 -150 0 0 -960z"/>
<path d="M4720 5015 l0 -165 150 0 150 0 0 165 0 165 -150 0 -150 0 0 -165z"/>
<path d="M5350 4220 l0 -960 150 0 150 0 0 960 0 960 -150 0 -150 0 0 -960z"/>
<path d="M5995 5168 c-3 -7 -4 -438 -3 -958 l3 -945 148 -3 147 -3 0 961 0
960 -145 0 c-107 0 -147 -3 -150 -12z"/>
<path d="M10550 4220 l0 -960 144 0 145 0 6 53 c3 28 5 459 3 957 l-3 905
-147 3 -148 3 0 -961z"/>
<path d="M14470 4220 l0 -961 463 3 462 3 55 26 c78 36 126 82 162 153 29 56
32 73 39 201 11 180 10 498 -1 598 -17 145 -77 233 -199 291 l-66 31 -312 3
-313 3 0 305 0 304 -145 0 -145 0 0 -960z m834 40 c14 -5 33 -21 43 -37 16
-24 18 -57 21 -302 3 -293 1 -315 -46 -351 -23 -19 -41 -20 -293 -20 l-269 0
0 353 c0 195 3 357 7 360 10 11 509 8 537 -3z"/>
<path d="M15950 5015 l0 -165 145 0 145 0 0 165 0 165 -145 0 -145 0 0 -165z"/>
<path d="M1650 4585 c0 -119 1 -125 23 -136 12 -7 121 -74 242 -149 121 -75
277 -171 348 -214 l127 -78 0 -202 c0 -181 -2 -205 -17 -218 -10 -8 -116 -74
-236 -147 l-219 -131 -171 109 c-306 194 -631 397 -656 410 -21 12 -36 5 -169
-76 -80 -48 -147 -92 -149 -98 -1 -5 70 -55 158 -110 88 -55 248 -157 357
-226 346 -222 614 -389 622 -389 4 0 95 54 201 121 193 120 229 142 489 303
l135 83 3 369 2 369 -232 141 c-128 78 -325 198 -438 268 l-204 126 -108 0
-108 0 0 -125z"/>
<path d="M4727 4564 c-4 -4 -7 -299 -7 -656 l0 -648 150 0 150 0 -2 653 -3
652 -141 3 c-77 1 -143 -1 -147 -4z"/>
<path d="M6614 4557 c-2 -7 -3 -74 -2 -148 l3 -134 433 -5 434 -5 24 -29 c22
-25 25 -36 22 -100 l-3 -71 -155 -2 c-85 -2 -256 -4 -380 -5 l-225 -3 -53 -29
c-69 -39 -115 -90 -141 -160 -18 -48 -21 -78 -21 -201 0 -184 16 -234 99 -315
93 -92 82 -90 670 -90 l502 0 -3 533 -3 532 -27 52 c-51 97 -134 158 -246 182
-81 17 -921 15 -928 -2z m916 -882 l0 -125 -323 0 c-382 0 -359 -7 -365 116
-4 71 -3 75 26 104 l30 30 316 0 316 0 0 -125z"/>
<path d="M11078 4563 c-17 -4 -18 -37 -18 -502 0 -548 1 -557 62 -654 17 -27
51 -64 76 -83 82 -62 106 -65 519 -62 l368 3 68 33 c55 28 77 46 113 94 75
102 74 96 74 670 l0 509 -142 -3 -143 -3 -5 -483 -5 -484 -28 -24 -28 -24
-284 0 -285 0 -32 29 -33 29 -3 481 -3 481 -127 -1 c-70 -1 -135 -3 -144 -6z"/>
<path d="M12587 4563 c-4 -3 -7 -298 -7 -655 l0 -648 145 0 145 0 0 489 c0
269 3 496 6 505 5 14 29 16 166 16 159 0 159 0 183 -26 l25 -27 2 -476 3 -476
148 -3 147 -3 0 506 0 505 151 0 c88 0 159 -4 171 -11 46 -25 48 -49 48 -539
l0 -460 145 0 145 0 0 503 c0 542 -2 562 -54 651 -36 62 -98 111 -169 135 -53
18 -86 21 -251 21 -173 0 -194 -2 -234 -21 -24 -12 -49 -30 -55 -40 -15 -25
-23 -24 -59 6 -59 50 -103 55 -463 55 -182 0 -335 -3 -338 -7z"/>
<path d="M15950 3915 l0 -655 145 0 145 0 0 655 0 655 -145 0 -145 0 0 -655z"/>
<path d="M16530 3915 l0 -655 139 0 138 0 7 38 c3 20 6 247 6 505 l0 467 283
0 c309 0 311 0 342 -60 13 -25 15 -101 15 -490 l0 -460 145 0 145 0 0 493 c0
413 -3 502 -15 552 -32 122 -114 209 -233 245 -60 19 -93 20 -518 20 l-454 0
0 -655z"/>
<path d="M18283 4550 c-76 -25 -135 -69 -180 -134 -62 -90 -64 -112 -61 -528
l3 -373 27 -57 c35 -76 98 -142 167 -175 l56 -28 333 -3 332 -3 0 -85 c0 -58
-5 -95 -16 -115 -29 -57 -44 -59 -474 -59 l-390 0 0 -145 0 -145 448 0 c443 0
447 1 503 23 111 46 173 117 210 239 19 65 20 90 17 705 -3 636 -3 638 -26
694 -32 80 -81 133 -160 171 l-67 33 -330 2 c-306 2 -335 1 -392 -17z m659
-297 c17 -15 18 -40 18 -360 l0 -343 -288 0 -289 0 -24 26 -24 26 -3 299 -3
300 35 35 34 34 263 0 c230 0 265 -2 281 -17z"/>
</g>
</svg>
