<?xml version="1.0" standalone="no"?>
<!DOCTYPE svg PUBLIC "-//W3C//DTD SVG 20010904//EN"
 "http://www.w3.org/TR/2001/REC-SVG-20010904/DTD/svg10.dtd">
<svg version="1.0" xmlns="http://www.w3.org/2000/svg"
 width="3548.000000pt" height="1774.000000pt" viewBox="0 0 3548.000000 1774.000000"
 preserveAspectRatio="xMidYMid meet">

<g transform="translate(0.000000,1774.000000) scale(0.100000,-0.100000)"
fill="#000000" stroke="none">
<path d="M3255 11856 c-100 -67 -206 -136 -603 -395 -123 -80 -222 -145 -642
-420 -91 -60 -211 -138 -267 -174 l-103 -66 0 -765 0 -764 188 -119 c572 -365
627 -401 1449 -941 210 -138 390 -255 400 -260 12 -6 29 -5 51 4 l32 14 0 378
0 378 -117 73 c-272 168 -1271 819 -1280 834 -6 10 -4 807 2 817 3 4 102 69
222 144 120 76 257 163 305 194 48 31 174 112 279 180 l192 122 161 -104 c509
-330 1041 -676 1308 -851 l156 -103 34 24 c18 14 158 106 311 206 240 156 276
182 265 196 -7 8 -150 106 -318 217 -330 218 -820 543 -1265 837 -466 308
-636 418 -643 418 -5 0 -57 -33 -117 -74z"/>
<path d="M22728 11223 l-328 -3 -2 -178 -3 -177 -664 -3 c-491 -1 -667 -5
-672 -14 -4 -6 -8 -128 -9 -270 l-1 -258 638 -1 c351 -1 648 0 661 1 12 1 22
-2 22 -7 0 -18 -160 -173 -230 -222 -268 -188 -635 -297 -1171 -346 l-65 -6
46 -192 c26 -106 55 -227 65 -269 15 -66 21 -78 38 -78 63 0 397 46 547 76
274 54 422 98 635 189 165 71 368 191 488 289 l58 47 64 -55 c273 -232 647
-390 1150 -486 128 -24 398 -60 455 -60 35 0 40 3 46 28 4 15 35 132 70 260
35 129 64 237 64 241 0 4 -71 14 -157 24 -201 21 -315 41 -480 82 -339 85
-617 229 -768 398 -30 34 -55 68 -55 75 0 9 137 12 653 12 l654 0 6 98 c9 125
9 302 1 380 l-7 62 -666 2 -666 3 -3 176 c-2 173 -3 177 -25 183 -12 3 -31 5
-42 4 -11 -2 -167 -4 -347 -5z"/>
<path d="M7767 10810 c-6 -396 -33 -535 -152 -775 -169 -342 -457 -618 -830
-796 -60 -29 -104 -56 -102 -63 7 -19 103 -314 147 -453 l42 -133 36 16 c21 9
89 36 152 62 210 84 398 191 585 331 168 127 306 270 428 444 27 37 52 67 56
67 4 0 43 -47 86 -106 92 -122 294 -322 414 -408 132 -94 275 -176 436 -250
83 -37 165 -75 183 -84 21 -9 37 -11 43 -5 5 5 27 61 48 124 22 62 64 185 95
272 31 87 56 166 55 175 0 12 -45 39 -147 89 -162 78 -269 152 -394 271 -200
192 -364 486 -418 752 -25 123 -44 462 -34 612 4 53 4 109 0 123 l-7 27 -358
-4 -359 -3 -5 -285z"/>
<path d="M9849 11090 c0 -3 0 -664 0 -1470 l1 -1465 365 -3 365 -2 -2 1472 -3
1473 -362 0 c-200 0 -363 -2 -364 -5z"/>
<path d="M14337 11093 c-3 -5 -4 -926 -3 -2048 l2 -2040 320 -1 c175 0 340 1
367 4 l47 5 0 972 0 972 61 7 c34 3 156 6 270 6 l209 0 0 331 0 332 -267 -4
-268 -4 -5 735 -5 735 -362 3 c-199 1 -364 -1 -366 -5z"/>
<path d="M19244 11091 c-2 -3 -4 -245 -4 -539 1 -294 0 -536 -2 -538 -2 -1
-161 -5 -353 -8 -193 -3 -351 -5 -351 -5 -1 -1 -4 -18 -8 -39 -17 -107 -90
-316 -167 -477 l-39 -80 460 -5 460 -5 3 -620 2 -620 368 -3 367 -2 0 1476 0
1476 -366 -4 c-201 -2 -368 -5 -370 -7z"/>
<path d="M28550 10853 l0 -243 -387 -2 -388 -3 -3 -287 -2 -288 387 -2 388 -3
5 -470 5 -470 360 4 c198 2 362 6 365 8 3 3 5 453 5 1001 l0 997 -367 0 -368
0 0 -242z"/>
<path d="M33473 11092 l-353 -2 0 -2047 0 -2046 212 6 c116 4 282 7 370 7
l158 0 0 2039 c0 1934 -1 2039 -17 2042 -10 2 -177 3 -370 1z"/>
<path d="M26389 11088 c0 -2 -2 -93 -5 -203 -5 -236 -16 -332 -50 -439 -119
-374 -481 -695 -927 -822 -59 -16 -68 -22 -64 -39 2 -11 34 -114 70 -230 36
-115 73 -236 82 -267 9 -34 21 -58 29 -58 7 0 78 22 157 49 465 159 715 310
993 602 l103 108 23 -32 c74 -101 217 -237 360 -344 129 -96 343 -200 545
-266 214 -69 234 -75 243 -63 5 6 32 79 62 161 29 83 72 204 96 269 23 66 41
123 38 127 -2 4 -19 11 -37 14 -135 30 -365 133 -503 226 -154 103 -314 281
-389 430 -43 85 -82 206 -95 294 -5 39 -10 163 -10 278 l0 207 -360 0 c-198 0
-360 -1 -361 -2z"/>
<path d="M11445 10968 c-3 -7 -4 -145 -3 -307 l3 -294 775 -1 775 -1 3 -389
c1 -277 -1 -392 -9 -397 -6 -3 -356 -6 -777 -6 l-767 0 -6 -999 c-3 -609 -2
-1018 4 -1048 11 -57 59 -116 121 -149 l41 -22 840 0 c739 0 860 2 1010 18
202 21 371 49 518 83 l107 26 0 300 0 300 -27 -6 c-91 -19 -272 -50 -433 -72
-181 -26 -200 -27 -818 -31 l-632 -5 2 499 3 498 770 3 c423 2 772 5 775 8 3
3 6 452 8 999 l2 992 -57 6 c-32 3 -545 6 -1140 7 -904 2 -1084 0 -1088 -12z"/>
<path d="M16248 10970 c-1 -5 -2 -143 0 -305 l3 -295 756 0 756 0 -6 -72 c-4
-40 -16 -110 -27 -156 -116 -482 -642 -837 -1440 -972 -177 -30 -170 -28 -170
-51 0 -25 108 -560 114 -567 7 -7 359 56 501 89 275 65 409 107 630 201 565
240 918 600 1063 1085 64 214 76 320 76 703 l1 345 -1127 3 c-743 1 -1127 -1
-1130 -8z"/>
<path d="M30192 9257 l3 -1713 28 -43 c21 -32 44 -50 91 -72 l62 -29 1095 2
1094 3 0 1780 0 1780 -362 3 -363 2 0 -589 0 -589 -47 -4 c-27 -3 -230 -4
-453 -4 l-405 1 -5 590 -5 590 -368 3 -367 2 2 -1713z m1648 -662 l0 -585
-455 0 -455 0 0 585 0 585 455 0 455 0 0 -585z"/>
<path d="M3370 9910 l0 -268 143 -93 c78 -51 279 -183 447 -294 168 -110 435
-284 593 -385 158 -102 297 -193 307 -203 19 -17 20 -33 20 -443 0 -256 -4
-433 -10 -443 -5 -10 -53 -47 -107 -82 -54 -34 -179 -115 -278 -179 -99 -64
-238 -154 -310 -200 -71 -46 -156 -101 -188 -122 -32 -21 -63 -38 -69 -38 -9
0 -488 316 -1218 804 -487 325 -504 336 -518 336 -20 0 -615 -389 -619 -405
-1 -5 71 -58 160 -117 89 -60 368 -246 619 -415 252 -170 704 -473 1006 -676
l548 -367 235 156 c129 86 398 264 599 395 201 131 444 290 540 352 96 63 208
136 248 161 l72 46 -2 797 -3 798 -62 40 c-34 22 -147 94 -250 159 -326 207
-701 451 -1185 771 l-273 180 -222 2 -223 2 0 -269z"/>
<path d="M20740 8810 l0 -280 830 0 830 0 0 -144 c0 -122 -2 -145 -16 -150 -9
-3 -315 -6 -680 -6 l-664 0 0 -275 0 -275 1345 0 1345 0 0 -350 0 -350 369 0
368 0 8 295 c4 162 4 423 0 579 -9 316 -11 328 -77 362 -30 16 -85 18 -643 18
l-610 1 -3 147 -3 148 833 2 833 3 3 278 2 277 -2035 0 -2035 0 0 -280z"/>
<path d="M25860 8918 c0 -7 -3 -120 -6 -250 l-6 -238 23 0 c13 -1 620 -2 1349
-3 l1325 -2 0 -110 0 -110 -1345 -5 -1345 -5 -3 -516 -2 -516 28 -54 c22 -43
38 -59 81 -81 l53 -28 1657 2 1656 3 3 253 2 252 -1375 0 -1375 0 0 110 0 110
1355 0 1355 0 -2 598 -3 597 -1712 3 c-1367 2 -1713 0 -1713 -10z"/>
<path d="M7210 7710 l0 -710 1713 2 1712 3 0 300 0 300 -1337 3 -1338 2 0 218
c0 119 -3 301 -7 405 l-6 187 -369 0 -368 0 0 -710z"/>
<path d="M16557 7726 c-4 -382 -4 -702 -1 -711 6 -14 178 -15 1728 -13 l1721
3 0 303 0 303 -1350 3 c-742 2 -1351 4 -1352 5 -2 0 -3 181 -3 401 l0 400
-368 0 -369 0 -6 -694z"/>
</g>
</svg>
